<mxfile host="app.diagrams.net" modified="2023-12-08T07:47:01.959Z" agent="Mozilla/5.0 (Windows NT 10.0; Win64; x64) AppleWebKit/537.36 (KHTML, like Gecko) Chrome/120.0.0.0 Safari/537.36" etag="Uo-chWqQs-E-tWa6FknB" version="22.1.7" type="device">
  <diagram name="1 oldal" id="FCVvzhyTjwdvrSC4sLi9">
    <mxGraphModel dx="1176" dy="846" grid="1" gridSize="10" guides="1" tooltips="1" connect="1" arrows="1" fold="1" page="1" pageScale="1" pageWidth="827" pageHeight="1169" math="0" shadow="0">
      <root>
        <mxCell id="0" />
        <mxCell id="1" parent="0" />
        <mxCell id="eztYyge2d1MtQpTtVBNG-1" value="" style="whiteSpace=wrap;html=1;aspect=fixed;" parent="1" vertex="1">
          <mxGeometry x="130" y="90" width="560" height="560" as="geometry" />
        </mxCell>
        <mxCell id="eztYyge2d1MtQpTtVBNG-4" value="Név" style="rounded=0;whiteSpace=wrap;html=1;align=left;" parent="1" vertex="1">
          <mxGeometry x="160" y="170" width="410" height="30" as="geometry" />
        </mxCell>
        <mxCell id="eztYyge2d1MtQpTtVBNG-5" value="admin_Szerkesztes" style="text;html=1;strokeColor=none;fillColor=none;align=center;verticalAlign=middle;whiteSpace=wrap;rounded=0;" parent="1" vertex="1">
          <mxGeometry x="160" y="110" width="130" height="40" as="geometry" />
        </mxCell>
        <mxCell id="eztYyge2d1MtQpTtVBNG-6" value="&lt;div align=&quot;left&quot;&gt;adminisztarot &lt;br&gt;&lt;/div&gt;&lt;span style=&quot;white-space: pre;&quot;&gt;&lt;/span&gt;" style="rounded=0;whiteSpace=wrap;html=1;align=left;" parent="1" vertex="1">
          <mxGeometry x="160" y="220" width="410" height="30" as="geometry" />
        </mxCell>
        <mxCell id="eztYyge2d1MtQpTtVBNG-7" value="jelszó" style="rounded=0;whiteSpace=wrap;html=1;align=left;" parent="1" vertex="1">
          <mxGeometry x="160" y="370" width="410" height="30" as="geometry" />
        </mxCell>
        <mxCell id="eztYyge2d1MtQpTtVBNG-8" value="34" style="rounded=0;whiteSpace=wrap;html=1;" parent="1" vertex="1">
          <mxGeometry x="600" y="170" width="50" height="30" as="geometry" />
        </mxCell>
        <mxCell id="eztYyge2d1MtQpTtVBNG-9" value="20" style="rounded=0;whiteSpace=wrap;html=1;" parent="1" vertex="1">
          <mxGeometry x="600" y="420" width="50" height="30" as="geometry" />
        </mxCell>
        <mxCell id="eztYyge2d1MtQpTtVBNG-11" value="Mentés" style="rounded=0;whiteSpace=wrap;html=1;fillColor=#008a00;strokeColor=#005700;fontColor=#ffffff;" parent="1" vertex="1">
          <mxGeometry x="160" y="560" width="100" height="50" as="geometry" />
        </mxCell>
        <mxCell id="eztYyge2d1MtQpTtVBNG-12" value="Mégse" style="rounded=0;whiteSpace=wrap;html=1;fillColor=#e51400;strokeColor=#B20000;fontColor=#000000;" parent="1" vertex="1">
          <mxGeometry x="550" y="560" width="100" height="50" as="geometry" />
        </mxCell>
        <mxCell id="eztYyge2d1MtQpTtVBNG-14" value="hirszerkesztő" style="rounded=0;whiteSpace=wrap;html=1;align=left;" parent="1" vertex="1">
          <mxGeometry x="160" y="270" width="410" height="30" as="geometry" />
        </mxCell>
        <mxCell id="eztYyge2d1MtQpTtVBNG-15" value="hirolvaso" style="rounded=0;whiteSpace=wrap;html=1;align=left;" parent="1" vertex="1">
          <mxGeometry x="160" y="320" width="410" height="30" as="geometry" />
        </mxCell>
        <mxCell id="eztYyge2d1MtQpTtVBNG-16" value="✅" style="text;html=1;strokeColor=none;fillColor=none;align=center;verticalAlign=middle;whiteSpace=wrap;rounded=0;" parent="1" vertex="1">
          <mxGeometry x="470" y="220" width="60" height="30" as="geometry" />
        </mxCell>
        <mxCell id="eztYyge2d1MtQpTtVBNG-17" value="" style="ellipse;whiteSpace=wrap;html=1;aspect=fixed;" parent="1" vertex="1">
          <mxGeometry x="540" y="225" width="20" height="20" as="geometry" />
        </mxCell>
        <mxCell id="eztYyge2d1MtQpTtVBNG-18" value="✅" style="text;html=1;strokeColor=none;fillColor=none;align=center;verticalAlign=middle;whiteSpace=wrap;rounded=0;" parent="1" vertex="1">
          <mxGeometry x="470" y="270" width="60" height="30" as="geometry" />
        </mxCell>
        <mxCell id="eztYyge2d1MtQpTtVBNG-20" value="✅" style="text;html=1;strokeColor=none;fillColor=none;align=center;verticalAlign=middle;whiteSpace=wrap;rounded=0;" parent="1" vertex="1">
          <mxGeometry x="470" y="320" width="60" height="30" as="geometry" />
        </mxCell>
        <mxCell id="eztYyge2d1MtQpTtVBNG-21" value="" style="ellipse;whiteSpace=wrap;html=1;aspect=fixed;" parent="1" vertex="1">
          <mxGeometry x="540" y="275" width="20" height="20" as="geometry" />
        </mxCell>
        <mxCell id="eztYyge2d1MtQpTtVBNG-22" value="" style="ellipse;whiteSpace=wrap;html=1;aspect=fixed;" parent="1" vertex="1">
          <mxGeometry x="540" y="325" width="20" height="20" as="geometry" />
        </mxCell>
        <mxCell id="5mzxEyOlNiElBTRLuWUm-1" value="email_cím" style="rounded=0;whiteSpace=wrap;html=1;align=left;" parent="1" vertex="1">
          <mxGeometry x="160" y="420" width="410" height="30" as="geometry" />
        </mxCell>
      </root>
    </mxGraphModel>
  </diagram>
</mxfile>
